<svg width="64" height="64" viewBox="0 0 64 64" xmlns="http://www.w3.org/2000/svg">
  <!-- Background with gradient -->
  <defs>
    <linearGradient id="bg" x1="0%" y1="0%" x2="100%" y2="100%">
      <stop offset="0%" style="stop-color:#3b82f6;stop-opacity:1" />
      <stop offset="100%" style="stop-color:#1e40af;stop-opacity:1" />
    </linearGradient>
    <linearGradient id="briefcase" x1="0%" y1="0%" x2="100%" y2="100%">
      <stop offset="0%" style="stop-color:#ffffff;stop-opacity:1" />
      <stop offset="100%" style="stop-color:#f1f5f9;stop-opacity:1" />
    </linearGradient>
  </defs>

  <!-- Background circle -->
  <circle cx="32" cy="32" r="32" fill="url(#bg)"/>

  <!-- Briefcase shadow -->
  <ellipse cx="33" cy="48" rx="14" ry="3" fill="#000000" opacity="0.1"/>

  <!-- Briefcase body -->
  <rect x="18" y="28" width="28" height="18" rx="3" fill="url(#briefcase)" stroke="#e2e8f0" stroke-width="1"/>

  <!-- Briefcase handle -->
  <rect x="26" y="22" width="12" height="6" rx="2" fill="none" stroke="#ffffff" stroke-width="2"/>
  <rect x="28" y="20" width="8" height="2" rx="1" fill="#ffffff"/>

  <!-- Briefcase lock -->
  <circle cx="32" cy="35" r="2.5" fill="#3b82f6"/>
  <rect x="31" y="37" width="2" height="4" rx="1" fill="#3b82f6"/>

  <!-- Document icon on briefcase -->
  <rect x="22" y="32" width="8" height="10" rx="1" fill="#3b82f6" opacity="0.8"/>
  <line x1="24" y1="35" x2="28" y2="35" stroke="#ffffff" stroke-width="1"/>
  <line x1="24" y1="37" x2="28" y2="37" stroke="#ffffff" stroke-width="1"/>
  <line x1="24" y1="39" x2="26" y2="39" stroke="#ffffff" stroke-width="1"/>

  <!-- Search/Target icon -->
  <circle cx="42" cy="18" r="6" fill="none" stroke="#ffffff" stroke-width="2.5"/>
  <circle cx="42" cy="18" r="3" fill="none" stroke="#ffffff" stroke-width="1.5"/>
  <line x1="46.5" y1="22.5" x2="50" y2="26" stroke="#ffffff" stroke-width="2.5" stroke-linecap="round"/>

  <!-- Success indicator dots -->
  <circle cx="38" cy="36" r="1.5" fill="#10b981"/>
  <circle cx="42" cy="38" r="1.5" fill="#f59e0b"/>
  <circle cx="38" cy="41" r="1.5" fill="#ef4444"/>
</svg>
