<svg width="180" height="180" viewBox="0 0 180 180" xmlns="http://www.w3.org/2000/svg">
  <!-- Background with gradient -->
  <defs>
    <linearGradient id="bg" x1="0%" y1="0%" x2="100%" y2="100%">
      <stop offset="0%" style="stop-color:#3b82f6;stop-opacity:1" />
      <stop offset="100%" style="stop-color:#1e40af;stop-opacity:1" />
    </linearGradient>
    <linearGradient id="briefcase" x1="0%" y1="0%" x2="100%" y2="100%">
      <stop offset="0%" style="stop-color:#ffffff;stop-opacity:1" />
      <stop offset="100%" style="stop-color:#f8fafc;stop-opacity:1" />
    </linearGradient>
  </defs>

  <!-- Background rounded rect for iOS -->
  <rect x="0" y="0" width="180" height="180" rx="40" fill="url(#bg)"/>

  <!-- Main briefcase -->
  <rect x="45" y="75" width="90" height="60" rx="8" fill="url(#briefcase)" stroke="#e2e8f0" stroke-width="2"/>

  <!-- Briefcase handle -->
  <rect x="72" y="55" width="36" height="20" rx="6" fill="none" stroke="#ffffff" stroke-width="4"/>
  <rect x="78" y="48" width="24" height="7" rx="3" fill="#ffffff"/>

  <!-- Briefcase lock -->
  <circle cx="90" cy="95" r="8" fill="#3b82f6"/>
  <rect x="86" y="103" width="8" height="15" rx="4" fill="#3b82f6"/>

  <!-- Document stack -->
  <rect x="55" y="85" width="25" height="30" rx="3" fill="#3b82f6" opacity="0.8"/>
  <line x1="60" y1="95" x2="75" y2="95" stroke="#ffffff" stroke-width="2"/>
  <line x1="60" y1="100" x2="75" y2="100" stroke="#ffffff" stroke-width="2"/>
  <line x1="60" y1="105" x2="70" y2="105" stroke="#ffffff" stroke-width="2"/>

  <!-- Search/Target -->
  <circle cx="130" cy="50" r="18" fill="none" stroke="#ffffff" stroke-width="6"/>
  <circle cx="130" cy="50" r="9" fill="none" stroke="#ffffff" stroke-width="3"/>
  <line x1="143" y1="63" x2="155" y2="75" stroke="#ffffff" stroke-width="6" stroke-linecap="round"/>

  <!-- Status indicators -->
  <circle cx="115" cy="95" r="4" fill="#10b981"/>
  <circle cx="125" cy="100" r="4" fill="#f59e0b"/>
  <circle cx="115" cy="110" r="4" fill="#ef4444"/>

  <!-- Company building silhouette -->
  <rect x="25" y="140" width="8" height="25" fill="#ffffff" opacity="0.3"/>
  <rect x="35" y="135" width="8" height="30" fill="#ffffff" opacity="0.3"/>
  <rect x="147" y="138" width="8" height="27" fill="#ffffff" opacity="0.3"/>
</svg>
